<svg width="166" height="29" viewBox="0 0 166 29" fill="none" xmlns="http://www.w3.org/2000/svg">
<path d="M16.956 23.436H6.94803L5.29203 28.224H2.58982e-05L9.03603 3.06H14.904L23.94 28.224H18.612L16.956 23.436ZM15.588 19.404L11.952 8.892L8.31603 19.404H15.588ZM32.3576 11.376C33.0056 10.32 33.8456 9.492 34.8776 8.892C35.9336 8.292 37.1336 7.992 38.4776 7.992V13.284H37.1456C35.5616 13.284 34.3616 13.656 33.5456 14.4C32.7536 15.144 32.3576 16.44 32.3576 18.288V28.224H27.3176V8.28H32.3576V11.376ZM40.5762 18.252C40.5762 16.188 40.9962 14.388 41.8362 12.852C42.6762 11.292 43.8402 10.092 45.3282 9.252C46.8162 8.388 48.5202 7.956 50.4402 7.956C52.9122 7.956 54.9522 8.58 56.5602 9.828C58.1922 11.052 59.2842 12.78 59.8362 15.012H54.4002C54.1122 14.148 53.6202 13.476 52.9242 12.996C52.2522 12.492 51.4122 12.24 50.4042 12.24C48.9642 12.24 47.8242 12.768 46.9842 13.824C46.1442 14.856 45.7242 16.332 45.7242 18.252C45.7242 20.148 46.1442 21.624 46.9842 22.68C47.8242 23.712 48.9642 24.228 50.4042 24.228C52.4442 24.228 53.7762 23.316 54.4002 21.492H59.8362C59.2842 23.652 58.1922 25.368 56.5602 26.64C54.9282 27.912 52.8882 28.548 50.4402 28.548C48.5202 28.548 46.8162 28.128 45.3282 27.288C43.8402 26.424 42.6762 25.224 41.8362 23.688C40.9962 22.128 40.5762 20.316 40.5762 18.252ZM74.7605 7.992C76.2725 7.992 77.6165 8.328 78.7925 9C79.9685 9.648 80.8805 10.62 81.5285 11.916C82.2005 13.188 82.5365 14.724 82.5365 16.524V28.224H77.4965V17.208C77.4965 15.624 77.1005 14.412 76.3085 13.572C75.5165 12.708 74.4365 12.276 73.0685 12.276C71.6765 12.276 70.5725 12.708 69.7565 13.572C68.9645 14.412 68.5685 15.624 68.5685 17.208V28.224H63.5285V1.584H68.5685V10.764C69.2165 9.9 70.0805 9.228 71.1605 8.748C72.2405 8.244 73.4405 7.992 74.7605 7.992ZM89.8853 5.904C88.9973 5.904 88.2533 5.628 87.6533 5.076C87.0773 4.5 86.7893 3.792 86.7893 2.952C86.7893 2.112 87.0773 1.416 87.6533 0.863997C88.2533 0.287997 88.9973 -2.38419e-06 89.8853 -2.38419e-06C90.7733 -2.38419e-06 91.5053 0.287997 92.0813 0.863997C92.6813 1.416 92.9813 2.112 92.9813 2.952C92.9813 3.792 92.6813 4.5 92.0813 5.076C91.5053 5.628 90.7733 5.904 89.8853 5.904ZM92.3693 8.28V28.224H87.3293V8.28H92.3693ZM112.865 3.096V7.164H102.389V13.608H110.417V17.604H102.389V28.224H97.3488V3.096H112.865ZM121.479 1.584V28.224H116.439V1.584H121.479ZM144.998 17.82C144.998 18.54 144.95 19.188 144.854 19.764H130.274C130.394 21.204 130.898 22.332 131.786 23.148C132.674 23.964 133.766 24.372 135.062 24.372C136.934 24.372 138.266 23.568 139.058 21.96H144.494C143.918 23.88 142.814 25.464 141.182 26.712C139.55 27.936 137.546 28.548 135.17 28.548C133.25 28.548 131.522 28.128 129.986 27.288C128.474 26.424 127.286 25.212 126.422 23.652C125.582 22.092 125.162 20.292 125.162 18.252C125.162 16.188 125.582 14.376 126.422 12.816C127.262 11.256 128.438 10.056 129.95 9.216C131.462 8.376 133.202 7.956 135.17 7.956C137.066 7.956 138.758 8.364 140.246 9.18C141.758 9.996 142.922 11.16 143.738 12.672C144.578 14.16 144.998 15.876 144.998 17.82ZM139.778 16.38C139.754 15.084 139.286 14.052 138.374 13.284C137.462 12.492 136.346 12.096 135.026 12.096C133.778 12.096 132.722 12.48 131.858 13.248C131.018 13.992 130.502 15.036 130.31 16.38H139.778ZM159.693 28.224L155.589 22.032L151.953 28.224H146.553L153.069 18.216L146.481 8.28H152.169L156.237 14.436L159.909 8.28H165.309L158.757 18.216L165.381 28.224H159.693Z" fill="#424241"/>
</svg>
