<svg width="127" height="22" viewBox="0 0 127 22" fill="none" xmlns="http://www.w3.org/2000/svg">
<path d="M4.46401 17.136C3.61601 17.136 2.85601 16.992 2.18401 16.704C1.51201 16.4 0.976013 15.968 0.576013 15.408C0.192013 14.832 1.27554e-05 14.136 1.27554e-05 13.32C1.27554e-05 12.504 0.192013 11.824 0.576013 11.28C0.976013 10.72 1.52001 10.304 2.20801 10.032C2.91201 9.74405 3.71201 9.60005 4.60801 9.60005H7.87201V8.92805C7.87201 8.36805 7.69601 7.91205 7.34401 7.56005C6.99201 7.19205 6.43201 7.00805 5.66401 7.00805C4.91201 7.00805 4.35201 7.18405 3.98401 7.53605C3.61601 7.87205 3.37601 8.31205 3.26401 8.85605L0.480013 7.92005C0.672013 7.31205 0.976013 6.76005 1.39201 6.26405C1.82401 5.75205 2.39201 5.34405 3.09601 5.04005C3.81601 4.72005 4.68801 4.56005 5.71201 4.56005C7.28001 4.56005 8.52001 4.95205 9.43201 5.73605C10.344 6.52005 10.8 7.65605 10.8 9.14405V13.584C10.8 14.064 11.024 14.304 11.472 14.304H12.432V16.8H10.416C9.82401 16.8 9.33601 16.656 8.95201 16.368C8.56801 16.08 8.37601 15.696 8.37601 15.216V15.192H7.92001C7.85601 15.384 7.71201 15.64 7.48801 15.96C7.26401 16.264 6.91201 16.536 6.43201 16.776C5.95201 17.016 5.29601 17.136 4.46401 17.136ZM4.99201 14.688C5.84001 14.688 6.52801 14.456 7.05601 13.992C7.60001 13.512 7.87201 12.88 7.87201 12.096V11.856H4.82401C4.26401 11.856 3.82401 11.976 3.50401 12.216C3.18401 12.456 3.02401 12.792 3.02401 13.224C3.02401 13.656 3.19201 14.008 3.52801 14.28C3.86401 14.552 4.35201 14.688 4.99201 14.688ZM18.8753 17.136C17.9313 17.136 17.0433 16.904 16.2113 16.44C15.3953 15.96 14.7393 15.264 14.2433 14.352C13.7473 13.44 13.4993 12.336 13.4993 11.04V10.656C13.4993 9.36005 13.7473 8.25605 14.2433 7.34405C14.7393 6.43205 15.3953 5.74405 16.2113 5.28005C17.0273 4.80005 17.9153 4.56005 18.8753 4.56005C19.5953 4.56005 20.1953 4.64805 20.6753 4.82405C21.1713 4.98405 21.5713 5.19205 21.8753 5.44805C22.1793 5.70405 22.4113 5.97605 22.5713 6.26405H23.0033V4.76837e-05H26.0273V16.8H23.0513V15.36H22.6193C22.3473 15.808 21.9233 16.216 21.3473 16.584C20.7873 16.952 19.9633 17.136 18.8753 17.136ZM19.7873 14.496C20.7153 14.496 21.4913 14.2 22.1153 13.608C22.7393 13 23.0513 12.12 23.0513 10.968V10.728C23.0513 9.57605 22.7393 8.70405 22.1153 8.11205C21.5073 7.50405 20.7313 7.20005 19.7873 7.20005C18.8593 7.20005 18.0833 7.50405 17.4593 8.11205C16.8353 8.70405 16.5233 9.57605 16.5233 10.728V10.968C16.5233 12.12 16.8353 13 17.4593 13.608C18.0833 14.2 18.8593 14.496 19.7873 14.496ZM32.7427 17.136C31.8947 17.136 31.1347 16.992 30.4627 16.704C29.7907 16.4 29.2547 15.968 28.8547 15.408C28.4707 14.832 28.2787 14.136 28.2787 13.32C28.2787 12.504 28.4707 11.824 28.8547 11.28C29.2547 10.72 29.7987 10.304 30.4867 10.032C31.1907 9.74405 31.9907 9.60005 32.8867 9.60005H36.1507V8.92805C36.1507 8.36805 35.9747 7.91205 35.6227 7.56005C35.2707 7.19205 34.7107 7.00805 33.9427 7.00805C33.1907 7.00805 32.6307 7.18405 32.2627 7.53605C31.8947 7.87205 31.6547 8.31205 31.5427 8.85605L28.7587 7.92005C28.9507 7.31205 29.2547 6.76005 29.6707 6.26405C30.1027 5.75205 30.6707 5.34405 31.3747 5.04005C32.0947 4.72005 32.9667 4.56005 33.9907 4.56005C35.5587 4.56005 36.7987 4.95205 37.7107 5.73605C38.6227 6.52005 39.0787 7.65605 39.0787 9.14405V13.584C39.0787 14.064 39.3027 14.304 39.7507 14.304H40.7107V16.8H38.6947C38.1027 16.8 37.6147 16.656 37.2307 16.368C36.8467 16.08 36.6547 15.696 36.6547 15.216V15.192H36.1987C36.1347 15.384 35.9907 15.64 35.7667 15.96C35.5427 16.264 35.1907 16.536 34.7107 16.776C34.2307 17.016 33.5747 17.136 32.7427 17.136ZM33.2707 14.688C34.1187 14.688 34.8067 14.456 35.3347 13.992C35.8787 13.512 36.1507 12.88 36.1507 12.096V11.856H33.1027C32.5427 11.856 32.1027 11.976 31.7827 12.216C31.4627 12.456 31.3027 12.792 31.3027 13.224C31.3027 13.656 31.4707 14.008 31.8067 14.28C32.1427 14.552 32.6307 14.688 33.2707 14.688ZM42.5883 16.8V4.89605H45.5643V6.19205H45.9963C46.2043 5.79205 46.5483 5.44805 47.0283 5.16005C47.5083 4.85605 48.1403 4.70405 48.9243 4.70405C49.7723 4.70405 50.4523 4.87205 50.9643 5.20805C51.4763 5.52805 51.8683 5.95205 52.1403 6.48005H52.5723C52.8443 5.96805 53.2283 5.54405 53.7243 5.20805C54.2203 4.87205 54.9243 4.70405 55.8363 4.70405C56.5723 4.70405 57.2363 4.86405 57.8283 5.18405C58.4363 5.48805 58.9163 5.96005 59.2683 6.60005C59.6363 7.22405 59.8203 8.01605 59.8203 8.97605V16.8H56.7963V9.19205C56.7963 8.53605 56.6283 8.04805 56.2923 7.72805C55.9563 7.39205 55.4843 7.22405 54.8763 7.22405C54.1883 7.22405 53.6523 7.44805 53.2683 7.89605C52.9003 8.32805 52.7163 8.95205 52.7163 9.76805V16.8H49.6923V9.19205C49.6923 8.53605 49.5243 8.04805 49.1883 7.72805C48.8523 7.39205 48.3803 7.22405 47.7723 7.22405C47.0843 7.22405 46.5483 7.44805 46.1643 7.89605C45.7963 8.32805 45.6123 8.95205 45.6123 9.76805V16.8H42.5883ZM62.7394 16.8V4.76837e-05H65.7634V9.28805H66.1954L70.1314 4.89605H74.0674L68.5714 10.656L74.2594 16.8H70.3714L66.1954 12.072H65.7634V16.8H62.7394ZM80.6503 17.136C79.4663 17.136 78.4183 16.888 77.5063 16.392C76.6103 15.88 75.9063 15.168 75.3943 14.256C74.8983 13.328 74.6503 12.24 74.6503 10.992V10.704C74.6503 9.45605 74.8983 8.37605 75.3943 7.46405C75.8903 6.53605 76.5863 5.82405 77.4823 5.32805C78.3783 4.81605 79.4183 4.56005 80.6023 4.56005C81.7703 4.56005 82.7863 4.82405 83.6503 5.35205C84.5143 5.86405 85.1863 6.58405 85.6663 7.51205C86.1463 8.42405 86.3863 9.48805 86.3863 10.704V11.736H77.7223C77.7543 12.552 78.0583 13.216 78.6343 13.728C79.2103 14.24 79.9143 14.496 80.7463 14.496C81.5943 14.496 82.2183 14.312 82.6183 13.944C83.0183 13.576 83.3223 13.168 83.5303 12.72L86.0023 14.016C85.7783 14.432 85.4503 14.888 85.0183 15.384C84.6023 15.864 84.0423 16.28 83.3383 16.632C82.6343 16.968 81.7383 17.136 80.6503 17.136ZM77.7463 9.48005H83.3143C83.2503 8.79205 82.9703 8.24005 82.4743 7.82405C81.9943 7.40805 81.3623 7.20005 80.5783 7.20005C79.7623 7.20005 79.1143 7.40805 78.6343 7.82405C78.1543 8.24005 77.8583 8.79205 77.7463 9.48005ZM90.0406 21.6V18.96H96.5206C96.9686 18.96 97.1926 18.72 97.1926 18.24V15.24H96.7606C96.6326 15.512 96.4326 15.784 96.1606 16.056C95.8886 16.328 95.5206 16.552 95.0566 16.728C94.5926 16.904 94.0006 16.992 93.2806 16.992C92.3526 16.992 91.5366 16.784 90.8326 16.368C90.1446 15.936 89.6086 15.344 89.2246 14.592C88.8406 13.84 88.6486 12.976 88.6486 12V4.89605H91.6726V11.76C91.6726 12.656 91.8886 13.328 92.3206 13.776C92.7686 14.224 93.4006 14.448 94.2166 14.448C95.1446 14.448 95.8646 14.144 96.3766 13.536C96.8886 12.912 97.1446 12.048 97.1446 10.944V4.89605H100.169V18.912C100.169 19.728 99.9286 20.376 99.4486 20.856C98.9686 21.352 98.3286 21.6 97.5286 21.6H90.0406ZM108.624 17.136C107.44 17.136 106.392 16.888 105.48 16.392C104.584 15.88 103.88 15.168 103.368 14.256C102.872 13.328 102.624 12.24 102.624 10.992V10.704C102.624 9.45605 102.872 8.37605 103.368 7.46405C103.864 6.53605 104.56 5.82405 105.456 5.32805C106.352 4.81605 107.392 4.56005 108.576 4.56005C109.744 4.56005 110.76 4.82405 111.624 5.35205C112.488 5.86405 113.16 6.58405 113.64 7.51205C114.12 8.42405 114.36 9.48805 114.36 10.704V11.736H105.696C105.728 12.552 106.032 13.216 106.608 13.728C107.184 14.24 107.888 14.496 108.72 14.496C109.568 14.496 110.192 14.312 110.592 13.944C110.992 13.576 111.296 13.168 111.504 12.72L113.976 14.016C113.752 14.432 113.424 14.888 112.992 15.384C112.576 15.864 112.016 16.28 111.312 16.632C110.608 16.968 109.712 17.136 108.624 17.136ZM105.72 9.48005H111.288C111.224 8.79205 110.944 8.24005 110.448 7.82405C109.968 7.40805 109.336 7.20005 108.552 7.20005C107.736 7.20005 107.088 7.40805 106.608 7.82405C106.128 8.24005 105.832 8.79205 105.72 9.48005ZM121.663 17.136C120.111 17.136 118.839 16.8 117.847 16.128C116.855 15.456 116.255 14.496 116.047 13.248L118.831 12.528C118.943 13.088 119.127 13.528 119.383 13.848C119.655 14.168 119.983 14.4 120.367 14.544C120.767 14.672 121.199 14.736 121.663 14.736C122.367 14.736 122.887 14.616 123.223 14.376C123.559 14.12 123.727 13.808 123.727 13.44C123.727 13.072 123.567 12.792 123.247 12.6C122.927 12.392 122.415 12.224 121.711 12.096L121.039 11.976C120.207 11.816 119.447 11.6 118.759 11.328C118.071 11.04 117.519 10.648 117.103 10.152C116.687 9.65605 116.479 9.01605 116.479 8.23205C116.479 7.04805 116.911 6.14405 117.775 5.52005C118.639 4.88005 119.775 4.56005 121.183 4.56005C122.511 4.56005 123.615 4.85605 124.495 5.44805C125.375 6.04005 125.951 6.81605 126.223 7.77605L123.415 8.64005C123.287 8.03205 123.023 7.60005 122.623 7.34405C122.239 7.08805 121.759 6.96005 121.183 6.96005C120.607 6.96005 120.167 7.06405 119.863 7.27205C119.559 7.46405 119.407 7.73605 119.407 8.08805C119.407 8.47205 119.567 8.76005 119.887 8.95205C120.207 9.12805 120.639 9.26405 121.183 9.36005L121.855 9.48005C122.751 9.64005 123.559 9.85605 124.279 10.128C125.015 10.384 125.591 10.76 126.007 11.256C126.439 11.736 126.655 12.392 126.655 13.224C126.655 14.472 126.199 15.44 125.287 16.128C124.391 16.8 123.183 17.136 121.663 17.136Z" fill="white"/>
</svg>
